<svg width="241" height="83" viewBox="0 0 241 83" fill="none" xmlns="http://www.w3.org/2000/svg">
<path d="M130.676 69.0932C127.946 66.7435 125.31 64.2349 122.77 61.5676C120.293 58.8368 117.975 56.0425 115.816 53.1847C113.72 50.3269 111.783 47.4373 110.005 44.516C108.29 41.5311 106.829 38.6098 105.623 35.752C103.464 38.1018 101.304 40.4833 99.1451 42.8965C97.0493 45.2463 95.1759 47.6278 93.5247 50.0411C91.8735 52.3909 90.5399 54.7724 89.5237 57.1856C88.4441 59.5354 87.9043 61.8852 87.9043 64.2349C87.9043 67.0292 88.3806 69.4425 89.3332 71.4747C90.2223 73.4435 91.429 75.0629 92.9531 76.333C94.4773 77.6032 96.2237 78.524 98.1925 79.0956C100.161 79.6672 102.193 79.9529 104.289 79.9529C108.481 79.9529 112.926 78.9686 117.626 76.9999C122.325 75.0311 126.675 72.3956 130.676 69.0932ZM118.864 12.6036C118.864 10.3809 118.356 8.79321 117.34 7.84061C116.387 6.8245 115.339 6.31644 114.196 6.31644C113.244 6.31644 112.228 6.63397 111.148 7.26905C110.132 7.90412 109.179 8.82497 108.29 10.0316C107.465 11.1747 106.766 12.5719 106.194 14.2231C105.623 15.8743 105.337 17.6842 105.337 19.6529C105.337 23.2728 106.004 27.115 107.337 31.1795C108.925 29.5283 110.418 27.9089 111.815 26.3212C113.212 24.7335 114.419 23.1776 115.435 21.6534C116.514 20.0657 117.34 18.5416 117.911 17.0809C118.547 15.5567 118.864 14.0643 118.864 12.6036ZM155.539 82.1439C155.539 82.3345 155.412 82.525 155.158 82.7155C154.904 82.906 154.523 83.0013 154.015 83.0013C150.205 81.7947 146.458 80.1117 142.774 77.9525C139.091 75.7297 135.503 73.1577 132.01 70.2364C129.597 72.0781 127.088 73.761 124.484 75.2852C121.881 76.8093 119.213 78.1112 116.483 79.1909C113.815 80.2705 111.116 81.0961 108.385 81.6676C105.718 82.2392 103.146 82.525 100.669 82.525C98.256 82.525 95.9697 82.1757 93.8105 81.4771C91.6512 80.842 89.7778 79.8577 88.1901 78.524C86.6024 77.1269 85.364 75.4122 84.4749 73.38C83.5223 71.3477 83.046 68.9662 83.046 66.2354C83.046 63.3141 83.7128 60.4563 85.0465 57.6619C86.3801 54.8041 88.0948 52.0098 90.1906 49.279C92.2863 46.5482 94.6043 43.8809 97.1446 41.2771C99.7484 38.6733 102.289 36.133 104.765 33.6563C102.924 28.7027 102.003 24.2254 102.003 20.2245C102.003 17.8747 102.416 15.7155 103.241 13.7468C104.13 11.778 105.242 10.0951 106.575 8.69795C107.909 7.3008 109.37 6.22118 110.957 5.45909C112.609 4.6335 114.165 4.2207 115.625 4.2207C117.34 4.2207 118.896 4.79227 120.293 5.9354C121.69 7.01501 122.389 8.82497 122.389 11.3653C122.389 12.9529 121.976 14.6041 121.15 16.3188C120.388 18.0335 119.34 19.8117 118.007 21.6534C116.737 23.4316 115.212 25.3051 113.434 27.2738C111.719 29.179 109.91 31.1477 108.004 33.1799C110.1 38.9591 113.212 44.8335 117.34 50.8032C121.531 56.7093 126.612 62.2345 132.582 67.3785C135.82 64.4572 138.424 61.2501 140.393 57.7572C142.362 54.2643 143.346 50.6127 143.346 46.8022C143.346 45.5321 143.156 44.2619 142.774 42.9918C142.457 41.6582 141.79 40.261 140.774 38.8003C140.774 38.6733 140.965 38.5463 141.346 38.4193C141.727 38.2288 142.076 38.1335 142.393 38.1335C143.283 38.1335 143.981 38.451 144.489 39.0861C145.061 39.6577 145.474 40.3563 145.728 41.1818C146.045 42.0074 146.236 42.8648 146.299 43.7539C146.426 44.5795 146.49 45.2463 146.49 45.7544C146.49 49.9458 145.315 54.0103 142.965 57.9477C140.679 61.8217 137.694 65.3781 134.01 68.6169C140.171 73.888 147.125 78.1747 154.873 81.4771C155.317 81.7311 155.539 81.9534 155.539 82.1439Z" fill="#FFA55C"/>
<path d="M19.24 48.1288C19.24 46.1448 19.112 44.4968 18.856 43.1848C18.632 41.8728 18.312 41.2168 17.896 41.2168C17.64 41.2168 17.4 41.4088 17.176 41.7928C16.952 42.1448 16.76 42.6568 16.6 43.3288C16.472 43.9688 16.36 44.7368 16.264 45.6328C16.2 46.4968 16.168 47.4408 16.168 48.4648C16.168 50.2888 16.296 52.2568 16.552 54.3688C16.808 56.4488 17.256 58.4648 17.896 60.4168C18.344 58.3688 18.68 56.2728 18.904 54.1288C19.128 51.9528 19.24 49.9528 19.24 48.1288ZM39.352 26.3368C39.352 26.4968 39.288 26.6248 39.16 26.7208C39.032 26.8168 38.872 26.9288 38.68 27.0568C37.72 27.6328 36.936 28.4328 36.328 29.4568C35.72 30.4808 35.224 31.6008 34.84 32.8168C34.488 34.0328 34.248 35.2808 34.12 36.5608C33.992 37.8088 33.928 38.9608 33.928 40.0168C33.928 40.7528 33.96 41.6648 34.024 42.7528C34.12 43.8088 34.216 44.9768 34.312 46.2568C34.44 47.5368 34.536 48.8968 34.6 50.3368C34.696 51.7448 34.744 53.1848 34.744 54.6568C34.744 56.7368 34.616 58.7528 34.36 60.7048C34.136 62.6568 33.672 64.4008 32.968 65.9368C32.296 67.4728 31.352 68.7048 30.136 69.6328C28.92 70.5608 27.336 71.0248 25.384 71.0248C24.488 71.0248 23.64 70.8488 22.84 70.4968C22.072 70.1768 21.352 69.7128 20.68 69.1048C20.04 68.4968 19.448 67.7928 18.904 66.9928C18.392 66.1928 17.928 65.3128 17.512 64.3528C17.096 65.4728 16.6 66.5128 16.024 67.4728C15.48 68.4328 14.872 69.2648 14.2 69.9688C13.528 70.6728 12.792 71.2168 11.992 71.6008C11.192 71.9848 10.344 72.1768 9.44799 72.1768C8.07199 72.1768 6.90399 71.8248 5.94399 71.1208C5.01599 70.4168 4.24799 69.4888 3.63999 68.3368C3.03199 67.2168 2.55199 65.9368 2.19999 64.4968C1.87999 63.0248 1.63999 61.5368 1.47999 60.0328C1.31999 58.4968 1.20799 57.0088 1.14399 55.5688C1.11199 54.0968 1.07999 52.8008 1.04799 51.6808C0.983991 49.6648 1.01599 47.7608 1.14399 45.9688C1.30399 44.1448 1.47999 42.5128 1.67199 41.0728C1.86399 39.6008 2.05599 38.3368 2.24799 37.2808C2.43999 36.2248 2.56799 35.4408 2.63199 34.9288C2.66399 34.7368 2.85599 34.6088 3.20799 34.5448C3.59199 34.4808 3.92799 34.4488 4.21599 34.4488C4.43999 34.4488 4.63199 34.4808 4.79199 34.5448C4.95199 34.5768 5.03199 34.6728 5.03199 34.8328C5.03199 35.0248 4.95199 35.3608 4.79199 35.8408C4.63199 36.2888 4.39199 37.1528 4.07199 38.4328C3.94399 39.0088 3.79999 39.8408 3.63999 40.9288C3.51199 41.9848 3.38399 43.1848 3.25599 44.5288C3.15999 45.8728 3.07999 47.3128 3.01599 48.8488C2.95199 50.3528 2.91999 51.8248 2.91999 53.2648C2.91999 54.3848 2.96799 55.6168 3.06399 56.9608C3.15999 58.2728 3.31999 59.5848 3.54399 60.8968C3.76799 62.1768 4.07199 63.4248 4.45599 64.6408C4.83999 65.8568 5.30399 66.9288 5.84799 67.8568C6.42399 68.7848 7.09599 69.5208 7.86399 70.0648C8.63199 70.6408 9.52799 70.9288 10.552 70.9288C11.32 70.9288 12.024 70.7368 12.664 70.3528C13.304 69.9688 13.896 69.4248 14.44 68.7208C14.984 68.0488 15.464 67.2488 15.88 66.3208C16.328 65.3928 16.728 64.3848 17.08 63.2968C16.344 61.2808 15.8 59.1368 15.448 56.8648C15.096 54.5928 14.92 52.4968 14.92 50.5768C14.92 49.1688 14.968 47.7768 15.064 46.4008C15.192 45.0248 15.368 43.7928 15.592 42.7048C15.816 41.6168 16.104 40.7368 16.456 40.0648C16.808 39.3928 17.224 39.0568 17.704 39.0568C18.088 39.0568 18.424 39.2968 18.712 39.7768C19.032 40.2568 19.288 40.9128 19.48 41.7448C19.704 42.5768 19.864 43.5688 19.96 44.7208C20.088 45.8408 20.152 47.0568 20.152 48.3688C20.152 50.4808 20.008 52.7048 19.72 55.0408C19.432 57.3448 18.984 59.6008 18.376 61.8088C18.792 62.9288 19.272 63.9688 19.816 64.9288C20.36 65.8568 20.968 66.6728 21.64 67.3768C22.344 68.0808 23.112 68.6248 23.944 69.0088C24.808 69.4248 25.752 69.6328 26.776 69.6328C28.184 69.6328 29.336 69.2808 30.232 68.5768C31.128 67.9048 31.832 66.9768 32.344 65.7928C32.856 64.5768 33.208 63.1848 33.4 61.6168C33.592 60.0168 33.688 58.3048 33.688 56.4808C33.688 54.8488 33.624 53.1688 33.496 51.4408C33.4 49.7128 33.288 48.0008 33.16 46.3048C33.032 44.5768 32.904 42.9128 32.776 41.3128C32.68 39.6808 32.632 38.1768 32.632 36.8008C32.632 35.8088 32.776 34.6568 33.064 33.3448C33.384 32.0328 33.8 30.8008 34.312 29.6488C34.856 28.4648 35.464 27.4728 36.136 26.6728C36.84 25.8408 37.576 25.4248 38.344 25.4248C38.568 25.4248 38.792 25.5368 39.016 25.7608C39.24 25.9528 39.352 26.1448 39.352 26.3368ZM54.3396 58.2088C54.3396 57.7288 54.2596 57.3448 54.0996 57.0568C53.9396 56.7368 53.6836 56.5768 53.3316 56.5768C52.7876 56.5768 52.3716 56.8488 52.0836 57.3928C51.7956 57.9048 51.6676 58.5608 51.6996 59.3608C51.7956 61.0568 52.0996 62.4808 52.6116 63.6328C53.1556 62.8968 53.5716 62.0648 53.8596 61.1368C54.1796 60.2088 54.3396 59.2328 54.3396 58.2088ZM67.2996 58.1608C67.0756 58.6408 66.8356 59.1368 66.5796 59.6488C66.3236 60.1288 66.0356 60.6088 65.7156 61.0888C64.0836 63.5208 62.4356 65.3288 60.7716 66.5128C59.1076 67.6968 57.5556 68.2888 56.1156 68.2888C54.2916 68.2888 52.8996 67.4248 51.9396 65.6968C50.8196 66.8168 49.5556 67.6648 48.1476 68.2408C46.7716 68.8168 45.4116 69.1048 44.0676 69.1048C43.2676 69.1048 42.4996 68.9928 41.7636 68.7688C41.0596 68.5448 40.4516 68.2088 39.9396 67.7608C39.3956 67.2808 38.9636 66.6888 38.6436 65.9848C38.3236 65.2488 38.1636 64.4008 38.1636 63.4408C38.1636 62.2888 38.4356 61.1208 38.9796 59.9368C39.4916 58.7208 40.2116 57.6328 41.1396 56.6728C42.0996 55.6808 43.2196 54.8648 44.4996 54.2248C45.7796 53.5848 47.1716 53.2648 48.6756 53.2648C49.8916 53.2648 50.8356 53.4408 51.5076 53.7928C52.1796 54.1128 52.5156 54.4168 52.5156 54.7048C52.5156 54.8328 52.4516 54.9288 52.3236 54.9928C52.1956 55.0568 52.0836 55.0888 51.9876 55.0888C51.9556 55.0568 51.9236 55.0408 51.8916 55.0408H51.8436C51.4596 54.6888 51.0276 54.4168 50.5476 54.2248C50.0676 54.0008 49.3636 53.8888 48.4356 53.8888C47.1876 53.8888 46.0516 54.1608 45.0276 54.7048C44.0356 55.2168 43.1876 55.9048 42.4836 56.7688C41.7796 57.6008 41.2356 58.5288 40.8516 59.5528C40.4676 60.5768 40.2756 61.5848 40.2756 62.5768C40.2756 64.4968 40.7236 65.8888 41.6196 66.7528C42.5156 67.6168 43.6356 68.0488 44.9796 68.0488C46.0676 68.0488 47.2036 67.7768 48.3876 67.2328C49.5716 66.6888 50.6276 65.9208 51.5556 64.9288C51.0436 63.7768 50.7876 62.2728 50.7876 60.4168C50.7876 59.2008 51.0116 58.1448 51.4596 57.2488C51.9076 56.3528 52.5476 55.9048 53.3796 55.9048C54.5316 55.9048 55.1076 56.5768 55.1076 57.9208C55.1076 59.2648 54.9156 60.4808 54.5316 61.5688C54.1476 62.6248 53.6356 63.5848 52.9956 64.4488C53.8916 66.1128 55.1396 66.9448 56.7396 66.9448C57.9556 66.9448 59.2516 66.4328 60.6276 65.4088C62.0356 64.3848 63.4116 62.8968 64.7556 60.9448C65.0756 60.4648 65.3636 59.9688 65.6196 59.4568C65.8756 58.9448 66.1316 58.4328 66.3876 57.9208L67.2996 58.1608ZM73.9667 36.7048C73.9667 34.8808 73.6627 33.4248 73.0547 32.3368C72.4787 31.2168 71.5027 30.6568 70.1267 30.6568C69.6467 30.6568 69.1987 30.8168 68.7827 31.1368C68.3987 31.4248 68.0627 31.8248 67.7747 32.3368C67.4867 32.8488 67.2627 33.4408 67.1027 34.1128C66.9427 34.7848 66.8627 35.5048 66.8627 36.2728C66.8627 38.3848 66.8787 40.3048 66.9107 42.0328C66.9427 43.7608 66.9747 45.3928 67.0067 46.9288C67.0707 48.4648 67.1347 49.9528 67.1987 51.3928C67.2627 52.8328 67.3267 54.3048 67.3907 55.8088C68.3187 54.5608 69.1827 53.1368 69.9827 51.5368C70.7827 49.9048 71.4707 48.2408 72.0467 46.5448C72.6547 44.8168 73.1187 43.1048 73.4387 41.4088C73.7907 39.7128 73.9667 38.1448 73.9667 36.7048ZM91.3427 58.1608C91.1187 58.6408 90.8787 59.1368 90.6227 59.6488C90.3987 60.1608 90.1107 60.6408 89.7587 61.0888C87.9987 63.5848 85.9987 65.5528 83.7587 66.9928C81.5187 68.4008 79.2947 69.1048 77.0867 69.1048C75.7107 69.1048 74.3987 68.7848 73.1507 68.1448C71.9027 67.5368 70.7987 66.5448 69.8387 65.1688C69.7107 65.0088 69.6467 64.8648 69.6467 64.7368C69.6467 64.4488 69.8387 64.3048 70.2227 64.3048C70.2547 64.3048 70.3667 64.3368 70.5587 64.4008C70.8147 64.4008 71.1027 64.4968 71.4227 64.6888C71.7747 64.8488 72.2707 64.9288 72.9107 64.9288C73.9027 64.9288 74.8307 64.7528 75.6947 64.4008C76.5587 64.0488 77.2947 63.6008 77.9027 63.0568C78.5427 62.4808 79.0387 61.8408 79.3907 61.1368C79.7427 60.4008 79.9187 59.6488 79.9187 58.8808C79.9187 57.9208 79.6627 57.0888 79.1507 56.3848C78.6707 55.6808 77.8387 55.3288 76.6547 55.3288C75.4387 55.3288 74.3187 55.7608 73.2947 56.6248C72.2707 57.4568 71.3427 58.4808 70.5107 59.6968C69.7107 60.8808 69.0227 62.1448 68.4467 63.4888C67.8707 64.8008 67.4387 65.9528 67.1507 66.9448C66.9907 67.4888 66.8467 67.8248 66.7187 67.9528C66.5907 68.0808 66.4467 68.1448 66.2867 68.1448C65.9347 68.1448 65.7747 67.8088 65.8067 67.1368C65.8067 66.8488 65.8227 66.4968 65.8547 66.0808C65.8867 65.6648 65.9187 65.2168 65.9507 64.7368C65.9507 64.2568 65.9667 63.7768 65.9987 63.2968C66.0307 62.7848 66.0467 62.3208 66.0467 61.9048C66.0467 60.4648 66.0147 58.8168 65.9507 56.9608C65.8867 55.0728 65.8067 53.1368 65.7107 51.1528C65.6147 49.1368 65.5347 47.1368 65.4707 45.1528C65.4067 43.1688 65.3747 41.3448 65.3747 39.6808C65.3747 38.3688 65.4707 37.1048 65.6627 35.8888C65.8547 34.6408 66.1587 33.5528 66.5747 32.6248C66.9907 31.6648 67.5187 30.9128 68.1587 30.3688C68.7987 29.7928 69.5507 29.5048 70.4147 29.5048C71.3107 29.5048 72.0627 29.6648 72.6707 29.9848C73.3107 30.2728 73.8227 30.7048 74.2067 31.2808C74.5907 31.8248 74.8627 32.4968 75.0227 33.2968C75.2147 34.0648 75.3107 34.9128 75.3107 35.8408C75.3107 37.4408 75.0867 39.2008 74.6387 41.1208C74.1907 43.0088 73.5987 44.9128 72.8627 46.8328C72.1267 48.7528 71.2787 50.6088 70.3187 52.4008C69.3907 54.1608 68.4307 55.6968 67.4387 57.0088C67.5027 57.9688 67.5347 58.9608 67.5347 59.9848C67.5667 61.0088 67.6147 62.0968 67.6787 63.2488C68.4787 61.5208 69.3587 60.0328 70.3187 58.7848C70.7347 58.2408 71.1987 57.7128 71.7107 57.2008C72.2547 56.6568 72.8147 56.1768 73.3907 55.7608C73.9987 55.3448 74.6387 55.0088 75.3107 54.7528C76.0147 54.4968 76.7507 54.3688 77.5187 54.3688C78.7347 54.3688 79.7907 54.6728 80.6867 55.2808C81.5827 55.8888 82.0307 56.8648 82.0307 58.2088C82.0307 59.4888 81.7107 60.5768 81.0707 61.4728C80.4627 62.3688 79.6947 63.1208 78.7667 63.7288C77.8387 64.3048 76.8467 64.7368 75.7907 65.0248C74.7347 65.3128 73.7747 65.4888 72.9107 65.5528C72.8467 65.5528 72.8147 65.5688 72.8147 65.6008C72.8147 65.6648 72.8627 65.7608 72.9587 65.8888C73.5987 66.6248 74.3187 67.1528 75.1187 67.4728C75.9187 67.7928 76.7507 67.9528 77.6147 67.9528C78.6707 67.9528 79.7427 67.7608 80.8307 67.3768C81.9187 66.9608 82.9587 66.4328 83.9507 65.7928C84.9427 65.1208 85.8547 64.3688 86.6867 63.5368C87.5507 62.6728 88.2547 61.8088 88.7987 60.9448C89.1187 60.4648 89.4067 59.9688 89.6627 59.4568C89.9187 58.9448 90.1747 58.4328 90.4307 57.9208L91.3427 58.1608ZM98.1096 55.1848C98.1096 54.3208 97.8856 53.6168 97.4376 53.0728C97.0216 52.4968 96.3336 52.2088 95.3736 52.2088C94.8616 52.2088 94.3976 52.3688 93.9816 52.6888C93.5656 53.0088 93.2136 53.4408 92.9256 53.9848C92.6376 54.4968 92.4136 55.1048 92.2536 55.8088C92.0936 56.5128 92.0136 57.2488 92.0136 58.0168C92.0136 59.2328 92.1416 60.3208 92.3976 61.2808C92.6856 62.2088 93.0856 63.0248 93.5976 63.7288C94.2696 63.1848 94.8776 62.5608 95.4216 61.8568C95.9656 61.1528 96.4296 60.4168 96.8136 59.6488C97.2296 58.8808 97.5496 58.1128 97.7736 57.3448C97.9976 56.5768 98.1096 55.8568 98.1096 55.1848ZM110.254 58.1608C110.03 58.6408 109.79 59.1368 109.534 59.6488C109.31 60.1288 109.022 60.6088 108.67 61.0888C107.102 63.3288 105.31 65.0248 103.294 66.1768C101.31 67.2968 99.4056 67.8568 97.5816 67.8568C96.5576 67.8568 95.5976 67.6808 94.7016 67.3288C93.8376 66.9768 93.0856 66.4488 92.4456 65.7448C91.8056 65.0408 91.2936 64.1608 90.9096 63.1048C90.5256 62.0488 90.3336 60.8008 90.3336 59.3608C90.3336 58.4008 90.4776 57.4408 90.7656 56.4808C91.0536 55.5208 91.4376 54.6568 91.9176 53.8888C92.4296 53.1208 93.0056 52.4968 93.6456 52.0168C94.3176 51.5368 95.0216 51.2968 95.7576 51.2968C96.9416 51.2968 97.8056 51.6488 98.3496 52.3528C98.8936 53.0248 99.1656 53.8888 99.1656 54.9448C99.1656 56.3848 98.7176 57.9528 97.8216 59.6488C96.9576 61.3128 95.7096 62.8648 94.0776 64.3048C95.2936 65.6808 96.8616 66.3688 98.7816 66.3688C100.222 66.3688 101.726 65.9368 103.294 65.0728C104.862 64.1768 106.334 62.8008 107.71 60.9448C108.062 60.4968 108.35 60.0168 108.574 59.5048C108.83 58.9608 109.086 58.4328 109.342 57.9208L110.254 58.1608ZM151.839 46.0648C150.655 46.0648 149.519 46.1928 148.431 46.4488C147.375 46.7048 146.431 47.0088 145.599 47.3608C144.799 47.7128 144.143 48.0808 143.631 48.4648C143.151 48.8488 142.911 49.1848 142.911 49.4728C142.911 49.8568 143.359 50.0488 144.255 50.0488C145.791 50.0488 147.247 49.6808 148.623 48.9448C150.031 48.2088 151.295 47.2488 152.415 46.0648H151.839ZM165.807 53.2648C165.807 54.8328 165.359 56.5288 164.463 58.3528C163.599 60.1768 162.399 61.9848 160.863 63.7768C159.327 65.5688 157.503 67.2968 155.391 68.9608C153.279 70.6248 151.007 72.0968 148.575 73.3768C146.143 74.6568 143.583 75.6648 140.895 76.4008C138.207 77.1688 135.519 77.5528 132.831 77.5528C132.383 77.5528 131.887 77.5368 131.343 77.5048C130.831 77.4728 130.351 77.3928 129.903 77.2648C129.455 77.1688 129.071 76.9928 128.751 76.7368C128.431 76.5128 128.271 76.1928 128.271 75.7768C128.271 75.2008 128.559 74.6408 129.135 74.0968C129.711 73.5848 130.447 73.1048 131.343 72.6568C132.239 72.2088 133.215 71.8088 134.271 71.4568C135.327 71.1048 136.335 70.8008 137.295 70.5448C138.287 70.2888 139.151 70.0808 139.887 69.9208C140.623 69.7928 141.119 69.7288 141.375 69.7288C141.567 69.7288 141.711 69.7768 141.807 69.8728C141.903 69.9688 141.951 70.0648 141.951 70.1608C141.951 70.3208 141.871 70.4008 141.711 70.4008H141.087C140.255 70.4008 139.199 70.5608 137.919 70.8808C136.639 71.2008 135.391 71.6008 134.175 72.0808C132.959 72.5608 131.919 73.0888 131.055 73.6648C130.191 74.2728 129.759 74.8328 129.759 75.3448C129.759 75.6968 129.871 75.9688 130.095 76.1608C130.351 76.3848 130.655 76.5608 131.007 76.6888C131.359 76.8168 131.727 76.8968 132.111 76.9288C132.495 76.9928 132.831 77.0248 133.119 77.0248C135.391 77.0248 137.711 76.6408 140.079 75.8728C142.479 75.1048 144.799 74.0808 147.039 72.8008C149.311 71.5528 151.439 70.0968 153.423 68.4328C155.439 66.8008 157.199 65.1048 158.703 63.3448C160.207 61.5528 161.391 59.7768 162.255 58.0168C163.119 56.2248 163.551 54.5608 163.551 53.0248C163.551 51.1368 162.767 49.5688 161.199 48.3208C159.663 47.0408 157.119 46.3048 153.567 46.1128C152.127 47.4568 150.543 48.5448 148.815 49.3768C147.119 50.2088 145.391 50.6248 143.631 50.6248C142.383 50.6248 141.759 50.3208 141.759 49.7128C141.759 49.3288 142.015 48.8968 142.527 48.4168C143.071 47.9048 143.807 47.4248 144.735 46.9768C145.695 46.5288 146.831 46.1608 148.143 45.8728C149.455 45.5528 150.895 45.3928 152.463 45.3928H153.039C154.095 44.1448 154.943 42.7848 155.583 41.3128C156.223 39.8088 156.543 38.3368 156.543 36.8968C156.543 35.9368 156.367 35.0248 156.015 34.1608C155.695 33.2648 155.151 32.4968 154.383 31.8568C153.647 31.2168 152.671 30.7048 151.455 30.3208C150.271 29.9368 148.831 29.7448 147.135 29.7448C145.983 29.7448 144.383 29.9048 142.335 30.2248C140.319 30.5448 138.127 31.0408 135.759 31.7128C133.423 32.3528 131.039 33.1688 128.607 34.1608C126.175 35.1528 123.967 36.3048 121.983 37.6168C119.999 38.9288 118.383 40.4168 117.135 42.0808C115.887 43.7448 115.263 45.5848 115.263 47.6008C115.263 47.8568 115.215 48.0808 115.119 48.2728C115.023 48.4328 114.927 48.5128 114.831 48.5128C114.703 48.5128 114.607 48.3848 114.543 48.1288C114.447 47.8408 114.399 47.3768 114.399 46.7368C114.687 44.6568 115.535 42.7688 116.943 41.0728C118.351 39.3768 120.095 37.8728 122.175 36.5608C124.223 35.2168 126.479 34.0648 128.943 33.1048C131.407 32.1448 133.839 31.3608 136.239 30.7528C138.671 30.1128 140.927 29.6488 143.007 29.3608C145.119 29.0408 146.847 28.8808 148.191 28.8808C150.143 28.8808 151.791 29.0728 153.135 29.4568C154.511 29.8088 155.631 30.3048 156.495 30.9448C157.359 31.5528 157.983 32.2888 158.367 33.1528C158.751 34.0168 158.943 34.9288 158.943 35.8888C158.943 37.4568 158.511 39.0888 157.647 40.7848C156.815 42.4488 155.679 44.0008 154.239 45.4408C156.287 45.5368 158.047 45.8088 159.519 46.2568C160.991 46.6728 162.191 47.2328 163.119 47.9368C164.047 48.6088 164.719 49.4088 165.135 50.3368C165.583 51.2328 165.807 52.2088 165.807 53.2648ZM140.367 65.8888C140.367 66.3368 140.335 66.6568 140.271 66.8488C140.207 67.0408 140.031 67.1368 139.743 67.1368C139.103 67.2008 138.783 66.5608 138.783 65.2168C138.751 60.8008 138.703 56.7688 138.639 53.1208C138.607 49.4728 138.559 46.3208 138.495 43.6648C138.463 40.9768 138.431 38.8488 138.399 37.2808C138.367 35.7128 138.351 34.8168 138.351 34.5928C138.351 34.3368 138.431 34.1608 138.591 34.0648C138.751 33.9688 138.943 33.8888 139.167 33.8248C139.423 33.8248 139.615 33.9048 139.743 34.0648C139.903 34.2248 139.983 34.4168 139.983 34.6408C139.983 37.2008 139.999 39.8408 140.031 42.5608C140.063 45.2488 140.095 47.9368 140.127 50.6248C140.191 53.3128 140.239 55.9528 140.271 58.5448C140.335 61.1368 140.367 63.5848 140.367 65.8888ZM184.465 58.2088C184.465 57.7288 184.385 57.3448 184.225 57.0568C184.065 56.7368 183.809 56.5768 183.457 56.5768C182.913 56.5768 182.497 56.8488 182.209 57.3928C181.921 57.9048 181.793 58.5608 181.825 59.3608C181.921 61.0568 182.225 62.4808 182.737 63.6328C183.281 62.8968 183.697 62.0648 183.985 61.1368C184.305 60.2088 184.465 59.2328 184.465 58.2088ZM197.425 58.1608C197.201 58.6408 196.961 59.1368 196.705 59.6488C196.449 60.1288 196.161 60.6088 195.841 61.0888C194.209 63.5208 192.561 65.3288 190.897 66.5128C189.233 67.6968 187.681 68.2888 186.241 68.2888C184.417 68.2888 183.025 67.4248 182.065 65.6968C180.945 66.8168 179.681 67.6648 178.273 68.2408C176.897 68.8168 175.537 69.1048 174.193 69.1048C173.393 69.1048 172.625 68.9928 171.889 68.7688C171.185 68.5448 170.577 68.2088 170.065 67.7608C169.521 67.2808 169.089 66.6888 168.769 65.9848C168.449 65.2488 168.289 64.4008 168.289 63.4408C168.289 62.2888 168.561 61.1208 169.105 59.9368C169.617 58.7208 170.337 57.6328 171.265 56.6728C172.225 55.6808 173.345 54.8648 174.625 54.2248C175.905 53.5848 177.297 53.2648 178.801 53.2648C180.017 53.2648 180.961 53.4408 181.633 53.7928C182.305 54.1128 182.641 54.4168 182.641 54.7048C182.641 54.8328 182.577 54.9288 182.449 54.9928C182.321 55.0568 182.209 55.0888 182.113 55.0888C182.081 55.0568 182.049 55.0408 182.017 55.0408H181.969C181.585 54.6888 181.153 54.4168 180.673 54.2248C180.193 54.0008 179.489 53.8888 178.561 53.8888C177.313 53.8888 176.177 54.1608 175.153 54.7048C174.161 55.2168 173.313 55.9048 172.609 56.7688C171.905 57.6008 171.361 58.5288 170.977 59.5528C170.593 60.5768 170.401 61.5848 170.401 62.5768C170.401 64.4968 170.849 65.8888 171.745 66.7528C172.641 67.6168 173.761 68.0488 175.105 68.0488C176.193 68.0488 177.329 67.7768 178.513 67.2328C179.697 66.6888 180.753 65.9208 181.681 64.9288C181.169 63.7768 180.913 62.2728 180.913 60.4168C180.913 59.2008 181.137 58.1448 181.585 57.2488C182.033 56.3528 182.673 55.9048 183.505 55.9048C184.657 55.9048 185.233 56.5768 185.233 57.9208C185.233 59.2648 185.041 60.4808 184.657 61.5688C184.273 62.6248 183.761 63.5848 183.121 64.4488C184.017 66.1128 185.265 66.9448 186.865 66.9448C188.081 66.9448 189.377 66.4328 190.753 65.4088C192.161 64.3848 193.537 62.8968 194.881 60.9448C195.201 60.4648 195.489 59.9688 195.745 59.4568C196.001 58.9448 196.257 58.4328 196.513 57.9208L197.425 58.1608ZM204.092 36.7048C204.092 34.8808 203.788 33.4248 203.18 32.3368C202.604 31.2168 201.628 30.6568 200.252 30.6568C199.772 30.6568 199.324 30.8168 198.908 31.1368C198.524 31.4248 198.188 31.8248 197.9 32.3368C197.612 32.8488 197.388 33.4408 197.228 34.1128C197.068 34.7848 196.988 35.5048 196.988 36.2728C196.988 38.3848 197.004 40.3048 197.036 42.0328C197.068 43.7608 197.1 45.3928 197.132 46.9288C197.196 48.4648 197.26 49.9528 197.324 51.3928C197.388 52.8328 197.452 54.3048 197.516 55.8088C198.444 54.5608 199.308 53.1368 200.108 51.5368C200.908 49.9048 201.596 48.2408 202.172 46.5448C202.78 44.8168 203.244 43.1048 203.564 41.4088C203.916 39.7128 204.092 38.1448 204.092 36.7048ZM221.468 58.1608C221.244 58.6408 221.004 59.1368 220.748 59.6488C220.524 60.1608 220.236 60.6408 219.884 61.0888C218.124 63.5848 216.124 65.5528 213.884 66.9928C211.644 68.4008 209.42 69.1048 207.212 69.1048C205.836 69.1048 204.524 68.7848 203.276 68.1448C202.028 67.5368 200.924 66.5448 199.964 65.1688C199.836 65.0088 199.772 64.8648 199.772 64.7368C199.772 64.4488 199.964 64.3048 200.348 64.3048C200.38 64.3048 200.492 64.3368 200.684 64.4008C200.94 64.4008 201.228 64.4968 201.548 64.6888C201.9 64.8488 202.396 64.9288 203.036 64.9288C204.028 64.9288 204.956 64.7528 205.82 64.4008C206.684 64.0488 207.42 63.6008 208.028 63.0568C208.668 62.4808 209.164 61.8408 209.516 61.1368C209.868 60.4008 210.044 59.6488 210.044 58.8808C210.044 57.9208 209.788 57.0888 209.276 56.3848C208.796 55.6808 207.964 55.3288 206.78 55.3288C205.564 55.3288 204.444 55.7608 203.42 56.6248C202.396 57.4568 201.468 58.4808 200.636 59.6968C199.836 60.8808 199.148 62.1448 198.572 63.4888C197.996 64.8008 197.564 65.9528 197.276 66.9448C197.116 67.4888 196.972 67.8248 196.844 67.9528C196.716 68.0808 196.572 68.1448 196.412 68.1448C196.06 68.1448 195.9 67.8088 195.932 67.1368C195.932 66.8488 195.948 66.4968 195.98 66.0808C196.012 65.6648 196.044 65.2168 196.076 64.7368C196.076 64.2568 196.092 63.7768 196.124 63.2968C196.156 62.7848 196.172 62.3208 196.172 61.9048C196.172 60.4648 196.14 58.8168 196.076 56.9608C196.012 55.0728 195.932 53.1368 195.836 51.1528C195.74 49.1368 195.66 47.1368 195.596 45.1528C195.532 43.1688 195.5 41.3448 195.5 39.6808C195.5 38.3688 195.596 37.1048 195.788 35.8888C195.98 34.6408 196.284 33.5528 196.7 32.6248C197.116 31.6648 197.644 30.9128 198.284 30.3688C198.924 29.7928 199.676 29.5048 200.54 29.5048C201.436 29.5048 202.188 29.6648 202.796 29.9848C203.436 30.2728 203.948 30.7048 204.332 31.2808C204.716 31.8248 204.988 32.4968 205.148 33.2968C205.34 34.0648 205.436 34.9128 205.436 35.8408C205.436 37.4408 205.212 39.2008 204.764 41.1208C204.316 43.0088 203.724 44.9128 202.988 46.8328C202.252 48.7528 201.404 50.6088 200.444 52.4008C199.516 54.1608 198.556 55.6968 197.564 57.0088C197.628 57.9688 197.66 58.9608 197.66 59.9848C197.692 61.0088 197.74 62.0968 197.804 63.2488C198.604 61.5208 199.484 60.0328 200.444 58.7848C200.86 58.2408 201.324 57.7128 201.836 57.2008C202.38 56.6568 202.94 56.1768 203.516 55.7608C204.124 55.3448 204.764 55.0088 205.436 54.7528C206.14 54.4968 206.876 54.3688 207.644 54.3688C208.86 54.3688 209.916 54.6728 210.812 55.2808C211.708 55.8888 212.156 56.8648 212.156 58.2088C212.156 59.4888 211.836 60.5768 211.196 61.4728C210.588 62.3688 209.82 63.1208 208.892 63.7288C207.964 64.3048 206.972 64.7368 205.916 65.0248C204.86 65.3128 203.9 65.4888 203.036 65.5528C202.972 65.5528 202.94 65.5688 202.94 65.6008C202.94 65.6648 202.988 65.7608 203.084 65.8888C203.724 66.6248 204.444 67.1528 205.244 67.4728C206.044 67.7928 206.876 67.9528 207.74 67.9528C208.796 67.9528 209.868 67.7608 210.956 67.3768C212.044 66.9608 213.084 66.4328 214.076 65.7928C215.068 65.1208 215.98 64.3688 216.812 63.5368C217.676 62.6728 218.38 61.8088 218.924 60.9448C219.244 60.4648 219.532 59.9688 219.788 59.4568C220.044 58.9448 220.3 58.4328 220.556 57.9208L221.468 58.1608ZM228.235 55.1848C228.235 54.3208 228.011 53.6168 227.563 53.0728C227.147 52.4968 226.459 52.2088 225.499 52.2088C224.987 52.2088 224.523 52.3688 224.107 52.6888C223.691 53.0088 223.339 53.4408 223.051 53.9848C222.763 54.4968 222.539 55.1048 222.379 55.8088C222.219 56.5128 222.139 57.2488 222.139 58.0168C222.139 59.2328 222.267 60.3208 222.523 61.2808C222.811 62.2088 223.211 63.0248 223.723 63.7288C224.395 63.1848 225.003 62.5608 225.547 61.8568C226.091 61.1528 226.555 60.4168 226.939 59.6488C227.355 58.8808 227.675 58.1128 227.899 57.3448C228.123 56.5768 228.235 55.8568 228.235 55.1848ZM240.379 58.1608C240.155 58.6408 239.915 59.1368 239.659 59.6488C239.435 60.1288 239.147 60.6088 238.795 61.0888C237.227 63.3288 235.435 65.0248 233.419 66.1768C231.435 67.2968 229.531 67.8568 227.707 67.8568C226.683 67.8568 225.723 67.6808 224.827 67.3288C223.963 66.9768 223.211 66.4488 222.571 65.7448C221.931 65.0408 221.419 64.1608 221.035 63.1048C220.651 62.0488 220.459 60.8008 220.459 59.3608C220.459 58.4008 220.603 57.4408 220.891 56.4808C221.179 55.5208 221.563 54.6568 222.043 53.8888C222.555 53.1208 223.131 52.4968 223.771 52.0168C224.443 51.5368 225.147 51.2968 225.883 51.2968C227.067 51.2968 227.931 51.6488 228.475 52.3528C229.019 53.0248 229.291 53.8888 229.291 54.9448C229.291 56.3848 228.843 57.9528 227.947 59.6488C227.083 61.3128 225.835 62.8648 224.203 64.3048C225.419 65.6808 226.987 66.3688 228.907 66.3688C230.347 66.3688 231.851 65.9368 233.419 65.0728C234.987 64.1768 236.459 62.8008 237.835 60.9448C238.187 60.4968 238.475 60.0168 238.699 59.5048C238.955 58.9608 239.211 58.4328 239.467 57.9208L240.379 58.1608Z" fill="#FFF9F4"/>
</svg>
