<svg width="36.000000" height="36.000000" viewBox="0 0 36 36" fill="none" xmlns="http://www.w3.org/2000/svg" xmlns:xlink="http://www.w3.org/1999/xlink">
	<desc>
			Created with Pixso.
	</desc>
	<defs>
		<clipPath id="clip5_3769">
			<rect id="Stroke 2/shopping-bag" rx="0.000000" width="35.000000" height="35.000000" transform="translate(0.500000 0.500000)" fill="white" fill-opacity="0"/>
		</clipPath>
	</defs>
	<rect id="Stroke 2/shopping-bag" rx="0.000000" width="35.000000" height="35.000000" transform="translate(0.500000 0.500000)" fill="#FFFFFF" fill-opacity="0"/>
	<g clip-path="url(#clip5_3769)">
		<path id="Vector" d="M7.5 10.5L28.5 10.5C30.15 10.5 31.5 11.84 31.5 13.5L31.5 30C31.5 31.65 30.15 33 28.5 33L7.5 33C5.84 33 4.5 31.65 4.5 30L4.5 13.5C4.5 11.84 5.84 10.5 7.5 10.5Z" stroke="#FFFFFF" stroke-opacity="1.000000" stroke-width="2.000000" stroke-linejoin="round"/>
		<path id="Vector" d="M12 15L12 9C12 5.68 14.68 3 18 3C21.31 3 24 5.68 24 9L24 14.53" stroke="#FFFFFF" stroke-opacity="1.000000" stroke-width="2.000000" stroke-linejoin="round" stroke-linecap="round"/>
	</g>
</svg>
